<?xml version="1.0" encoding="UTF-8"?>
<svg version="1.0" style="background:#fff" width="300" height="300" viewBox="0 0 225 225" xmlns="http://www.w3.org/2000/svg">
  <path style="fill:#07253f;stroke:#07253f" d="M24 23c-1.9 1.9-2 3.3-2 42.5V106h13V82h67v16.5l-18-.3-18-.3V135h8v-28h37V73H86V45h-9v28H35V34h17v21h8V34h42v21h9V34h20v73h24v-8h-16V34h47v11.9l-14.2.3-14.3.3v35l4.3.3 4.2.3V55h19.9l.3 8.2.3 8.1 6.3 3.5 6.2 3.4V51.6c0-25.3-.1-26.7-2-28.6-2-2-3.3-2-86.5-2S26 21 24 23z"/>
  <path style="fill:#07253f;stroke:#07253f" d="m192 119.3-5.5 3.3-.3 34.2-.2 34.2h-47v-17h27v-35h-35v8h26v19h-26v25H86v-17h27v-35h-9.1l.2 13.2.1 13.3-23.6.3-23.6.2v8h20v17H35v-53H22v31.4c0 31.4 0 31.5 2.2 33 2 1.4 11.9 1.6 86.4 1.6h84.3l2-2.6c2-2.6 2.1-3.7 2.1-44 0-22.8-.3-41.4-.7-41.4-.5 0-3.3 1.5-6.3 3.3z"/>
  <path style="fill:#369bda;stroke:none" d="M186 82v8c-5.583 0-15.075-1.807-19.772 1.742C160.416 96.134 163 109.553 163 116h-58c-5.324 0-16.407-2.093-20.258 2.434C80.375 123.567 83 137.574 83 144H57c0-6.616 2.56-20.174-1.858-25.566C50.242 112.452 29.239 116 22 116v13h21c0 6.741-2.613 20.477 2.434 25.682C51.538 160.978 74.596 157.003 83 157c3.64-.001 8.61.678 11.258-2.434C98.508 149.57 96 136.24 96 130h57c5.903 0 16.906 2.066 21.486-2.514 4.85-4.85 2.514-17.19 2.514-23.486h9v8l26-15-26-15z"/>
</svg>
