<?xml version="1.0" encoding="UTF-8"?>
<svg version="1.0" width="400" height="400" viewBox="0 0 400 405.286" xmlns="http://www.w3.org/2000/svg">
  <path d="M191.8 46.812c-12.566 1.133-17.071 1.635-18.057 2.01-.623.237-2.665.614-4.538.839-1.873.225-4.137.728-5.031 1.118-.894.391-2.647.838-3.895.994-1.248.156-2.832.564-3.521.908-.688.343-1.816.777-2.505.963-3.899 1.053-6.624 1.909-7.94 2.494-.818.364-1.721.662-2.006.662-.285 0-1.146.332-1.913.739-.767.406-1.923.868-2.57 1.026-.646.159-1.664.636-2.261 1.062-.598.425-1.268.773-1.489.773-.49 0-5.085 2.151-5.777 2.704-.273.219-.947.534-1.497.7-.55.165-1.45.614-2 .996s-1.45.833-2 1.001c-.55.169-1.09.438-1.2.599-.11.161-.92.683-1.8 1.16-.88.477-2.41 1.398-3.4 2.047-.99.649-2.07 1.309-2.4 1.468-1.07.512-4.196 2.683-4.333 3.009-.074.174-.318.316-.543.316-.224 0-.917.405-1.539.9a55.11 55.11 0 0 1-2.587 1.9c-.802.55-1.886 1.405-2.41 1.9-.523.495-1.14.9-1.37.9-.23 0-.418.143-.418.318 0 .175-.945 1.029-2.1 1.898-2.418 1.82-2.085 1.538-6.14 5.184-3.601 3.237-6.348 5.997-10.56 10.606-3.901 4.27-3.567 3.879-5.384 6.294-.869 1.155-1.723 2.1-1.898 2.1-.175 0-.318.172-.318.382 0 .21-.405.817-.9 1.349s-1.316 1.575-1.824 2.318c-.508.743-1.768 2.543-2.8 4.001-1.032 1.457-2.368 3.437-2.968 4.4a382.173 382.173 0 0 0-3.061 4.95c-.535.88-1.269 2.05-1.632 2.6-.362.55-.904 1.63-1.203 2.4-.299.77-.763 1.67-1.031 2-.267.33-.613 1.015-.767 1.521-.155.507-.879 1.979-1.609 3.271-.731 1.292-1.446 2.884-1.589 3.537-.144.654-.592 1.488-.997 1.854-.404.366-.853 1.45-.997 2.408-.144.959-.522 1.96-.842 2.225-.319.265-.58.744-.58 1.065 0 .32-.42 1.693-.934 3.051-.513 1.357-1.523 4.358-2.245 6.668-.721 2.31-1.471 4.371-1.666 4.58-.195.209-.361 1.019-.368 1.8-.007.781-.382 2.41-.832 3.62-.451 1.21-.98 3.55-1.176 5.2-.196 1.65-.63 3.99-.964 5.2-2.518 9.107-2.625 47.11-.148 52.8.239.55.665 2.71.947 4.8.282 2.09.813 4.606 1.179 5.592.367.986.768 2.696.892 3.8.124 1.104.374 2.199.557 2.433.182.234.97 2.484 1.75 5s1.587 4.935 1.794 5.375c.208.44.596 1.61.865 2.6.268.99.706 2.07.973 2.4.268.33.62 1.23.784 2 .163.77.633 1.829 1.044 2.354.411.525.748 1.19.748 1.479 0 .289.796 2.109 1.769 4.046.973 1.937 1.885 3.791 2.026 4.121.142.33.784 1.5 1.428 2.6.644 1.1 1.431 2.554 1.751 3.232.319.677.86 1.464 1.203 1.749.343.284.623.72.622.968 0 .248.837 1.711 1.862 3.251 1.025 1.54 2.579 3.88 3.455 5.2 2.686 4.05 4.063 5.982 4.562 6.4.262.22 1.39 1.57 2.505 3 2.827 3.626 3.25 4.12 7.155 8.351 5.374 5.823 10.049 10.183 15.666 14.611 1.648 1.299 3.356 2.71 3.796 3.136.794.769 2.77 2.171 7 4.967 1.21.8 3.213 2.143 4.451 2.986 1.239.842 2.724 1.711 3.3 1.93.577.22 1.049.556 1.049.748 0 .192.675.651 1.5 1.019 1.669.745 3.587 1.706 4.5 2.254 1.937 1.162 9.588 4.798 10.096 4.798.333 0 .822.261 1.087.58.265.318 1.142.786 1.949 1.039.807.253 2.2.803 3.094 1.221.895.418 1.915.76 2.268.76.353 0 1.151.263 1.774.585.622.322 2.752 1.062 4.732 1.644 1.98.582 4.41 1.391 5.4 1.797.99.406 2.79.857 4 1.003 1.21.146 2.727.535 3.371.865.644.33 3.054.848 5.355 1.15 2.301.302 4.389.72 4.64.928.252.209 2.342.492 4.646.63 2.303.139 6.038.51 8.3.825 4.795.668 20.617.779 24.288.17 1.32-.219 5.007-.594 8.193-.833s6.137-.62 6.559-.845c.421-.226 2.629-.655 4.906-.954 2.277-.299 4.636-.799 5.241-1.112.606-.313 2.181-.751 3.501-.974 2.217-.375 8.422-2.298 13.2-4.091 1.1-.413 2.54-.873 3.2-1.023.66-.15 1.47-.503 1.8-.785.33-.282 1.269-.637 2.087-.788.818-.152 1.881-.617 2.362-1.034.48-.417 1.082-.758 1.337-.758.255 0 2.972-1.26 6.039-2.799 3.066-1.54 5.8-2.8 6.075-2.8.275-.001.5-.187.5-.415 0-.228.765-.77 1.7-1.204a33.524 33.524 0 0 0 3.39-1.886c.93-.603 2.82-1.804 4.2-2.669 1.381-.865 2.6-1.681 2.71-1.814.181-.217 3.252-2.343 5.912-4.091.567-.373 1.188-.958 1.38-1.3.191-.342.594-.622.895-.622.3 0 .606-.165.68-.366.073-.202 1.303-1.299 2.733-2.439 4.407-3.514 14.8-13.211 14.8-13.81 0-.113.765-.983 1.7-1.933 1.94-1.969 2.535-2.678 5.265-6.268 1.081-1.421 2.341-2.976 2.8-3.455.459-.479 1.25-1.469 1.758-2.2a772.17 772.17 0 0 1 2.902-4.121c1.089-1.536 2.081-3.111 2.204-3.5.124-.389.393-.708.598-.708.205 0 .373-.248.373-.551 0-.303.285-.787.633-1.076.348-.289.933-1.106 1.3-1.816s1.657-3.058 2.867-5.217c1.21-2.16 2.359-4.38 2.554-4.933.194-.554.526-1.225.737-1.492.711-.902 2.684-5.11 2.696-5.753.007-.351.355-.948.773-1.326.419-.379.881-1.331 1.029-2.116.147-.786.615-2.076 1.039-2.868.425-.792.772-1.679.772-1.972 0-.292.346-1.375.77-2.406.423-1.031 1.326-3.674 2.006-5.874.68-2.2 1.399-4.36 1.597-4.8.198-.44.569-1.97.825-3.4.255-1.43.695-2.96.977-3.4.282-.44.638-2.24.792-4 .154-1.76.547-4.036.875-5.059 1.432-4.474 2.832-25.367 2.227-33.242-.88-11.436-1.615-18.191-2.216-20.346-.33-1.184-.724-3.498-.876-5.143-.152-1.644-.51-3.354-.795-3.8-.286-.445-.726-1.98-.977-3.41-.252-1.43-.595-2.87-.761-3.2-.167-.33-.891-2.58-1.61-5-.718-2.42-1.551-4.94-1.851-5.6-.3-.66-.729-1.92-.954-2.8-.225-.88-.661-1.96-.968-2.4-.307-.44-.695-1.43-.862-2.2-.167-.77-.64-1.829-1.051-2.354-.411-.525-.748-1.15-.748-1.39 0-.239-1.395-3.181-3.1-6.536-3.97-7.812-4.309-8.438-5.002-9.248-.317-.369-.674-.942-.794-1.272-.307-.848-5.325-8.47-6.079-9.234-.344-.348-.626-.798-.627-1-.002-.3-2.413-3.481-4.688-6.184-.269-.32-1.427-1.752-2.574-3.182-2.737-3.414-4.366-5.167-10.193-10.966-5.173-5.147-5.331-5.292-9.34-8.548a313.116 313.116 0 0 1-4.35-3.6c-.961-.817-2.041-1.65-2.4-1.85-.359-.2-1.123-.74-1.697-1.2-1.181-.945-1.115-.9-6.556-4.48-2.2-1.447-4.45-2.892-5-3.21-.55-.318-1.72-1.001-2.6-1.519-2.664-1.567-13.583-7.027-14.053-7.027-.241 0-.878-.345-1.414-.767-.537-.422-1.65-.894-2.474-1.048-.824-.155-1.739-.522-2.033-.816-.294-.294-1.41-.748-2.48-1.009-1.07-.262-2.174-.654-2.452-.872-.278-.218-1.448-.627-2.6-.91-2.048-.502-2.818-.75-6.894-2.22-1.1-.397-2.9-.846-4-.999-1.1-.152-2.74-.593-3.645-.98-.905-.387-2.885-.824-4.4-.971-1.515-.148-3.731-.539-4.925-.869-1.941-.539-5.036-.887-19.03-2.145-4.573-.411-11.327-.403-16 .018m18.2 69.599c.99.208 3.848.644 6.351.971 2.503.326 4.937.846 5.409 1.155.472.309 1.664.694 2.649.855.985.161 2.331.614 2.991 1.007.66.393 1.783.838 2.495.989.713.15 1.4.442 1.528.649.127.206.874.644 1.66.972 1.486.621 5.728 3.387 7.117 4.641 4.709 4.25 8.27 8.28 8.803 9.961.152.477.618 1.21 1.036 1.628.419.419.761 1.099.761 1.512 0 .413.247.956.549 1.206.677.563 2.22 4.997 3.492 10.043 1.414 5.603 1.424 18.215.02 23-1.502 5.114-2.549 7.93-3.332 8.954-.401.525-.732 1.155-.736 1.4-.008.48-1.437 2.76-3.873 6.181-3.74 5.252-10.4 12.324-20.153 21.398-1.852 1.722-4.033 3.972-4.847 5a136.793 136.793 0 0 1-2 2.48c-.929 1.095-4.32 8.357-4.334 9.285-.008.496-.285 1.982-.615 3.302s-.76 3.986-.957 5.924c-.518 5.119 1.016 4.676-16.174 4.676-18.066 0-16.641.456-16.637-5.323.006-6.779 1.403-16.635 2.632-18.563.311-.487.568-1.387.571-2 .003-.613.266-1.564.584-2.114.592-1.023.735-1.316 1.662-3.4 2.122-4.774 5.532-9.2 11.606-15.064C214.1 181.844 216.5 178.746 218.2 171.4c2.121-9.173-1.816-21.413-7.333-22.798-.56-.14-1.569-.648-2.243-1.128-1.872-1.334-13.856-1.336-15.552-.002-.61.48-1.603.981-2.206 1.114-.94.206-4.288 3.108-5.994 5.194-1.765 2.159-3.298 7.638-4.008 14.323-.548 5.167 1.305 4.697-18.533 4.697h-17.172l-.629-1.5c-1.655-3.949 1.308-23.735 4.027-26.88.294-.341.658-1.133.807-1.76.149-.627.592-1.617.984-2.2 4.485-6.673 5.873-8.282 10.392-12.042 4.989-4.151 12.828-8.337 16.906-9.026.955-.161 2.123-.546 2.595-.856.472-.309 2.816-.833 5.209-1.165 2.392-.331 5.07-.754 5.95-.941 2.206-.466 16.391-.481 18.6-.019m-8.714 142.943c.943.305 2.613.768 3.712 1.03 15.516 3.7 18.616 27.255 4.802 36.49-6.134 4.1-17.689 4.176-23.112.151-4.585-3.403-5.518-4.611-8.032-10.393-3.26-7.495 1.15-20.797 8.038-24.244.608-.304 1.376-.772 1.706-1.038 1.981-1.6 10.182-2.87 12.886-1.996" stroke="#2594f4" fill="#2594f4"/>
  <path d="M188.152 43.986c-2.447.182-4.789.512-5.204.735-.415.222-2.463.527-4.551.679-4.431.32-10.689 1.517-12.305 2.352-.62.321-2.45.714-4.067.873-1.921.189-3.175.525-3.619.969-.414.414-1.652.78-3.176.94-1.374.143-2.978.523-3.564.845-.586.321-2.049.778-3.25 1.016s-2.461.671-2.8.962c-.339.292-1.475.739-2.526.995-1.05.255-3.09 1.091-4.533 1.856-1.443.766-2.878 1.392-3.19 1.392-.312 0-.902.335-1.312.745-.41.41-1.445.876-2.3 1.035-.855.16-1.877.635-2.271 1.055-.393.421-1.134.765-1.646.765-.511 0-1.359.326-1.884.725-.525.399-1.944 1.229-3.154 1.844-1.21.614-2.572 1.458-3.026 1.874-.454.416-1.011.757-1.238.757-.227 0-.729.35-1.115.777-.387.428-1.237.895-1.89 1.038-.652.143-1.277.501-1.39.795-.113.294-.73.717-1.372.941-1.32.46-3.649 2.106-5.237 3.702-.587.59-1.422 1.185-1.855 1.323-.433.137-1.251.649-1.817 1.137a39.277 39.277 0 0 1-1.944 1.559c-1.729 1.269-7.257 5.914-8.456 7.105-.618.613-2.377 2.24-4.786 4.423-1.092.99-2.144 1.98-2.336 2.2-.193.22-.798.904-1.344 1.521-.547.616-.994 1.279-.994 1.473 0 .193-.36.466-.8.606-.44.14-.8.409-.8.598 0 .19-.784 1.163-1.742 2.163-2.711 2.829-5.229 5.868-5.545 6.691-.158.411-.479.748-.713.748-.234 0-.541.315-.683.7-.141.385-.676 1.096-1.187 1.581-.512.484-.93 1.266-.93 1.737 0 .52-.314.939-.8 1.066-.44.115-.8.347-.8.515 0 .167-.81 1.348-1.8 2.623-.99 1.275-1.8 2.528-1.8 2.786 0 .257-.35.785-.777 1.171-.428.387-.888 1.207-1.023 1.821-.135.614-.595 1.434-1.023 1.821-.427.386-.777.867-.777 1.068 0 .2-.43.937-.955 1.638-.526.7-1.427 2.173-2.004 3.273-.576 1.1-1.211 2.27-1.409 2.6-.643 1.068-2.375 4.972-2.663 6-.153.55-.614 1.429-1.024 1.954-.41.525-.745 1.369-.745 1.876 0 .508-.184 1.037-.409 1.176-.514.317-2.791 5.296-2.791 6.102 0 .329-.344 1.159-.765 1.845-.421.686-.954 2.278-1.185 3.538-.231 1.26-.675 2.7-.988 3.2-.312.5-.683 1.966-.824 3.258-.154 1.408-.573 2.751-1.047 3.354-.598.76-.791 1.62-.791 3.53 0 1.862-.24 2.976-.915 4.246-.91 1.712-1.895 6.589-2.65 13.121-.216 1.87-.611 4.66-.879 6.2-.663 3.816-.672 25.551-.012 28.8.268 1.32.673 4.11.899 6.2.739 6.812 1.64 11.349 2.612 13.15.685 1.269.945 2.392.945 4.082 0 2.233.599 4.368 1.225 4.368.163 0 .419 1.125.569 2.5.15 1.375.591 3.13.98 3.9s.84 2.3 1.002 3.4c.162 1.1.532 2.27.822 2.6.29.33.726 1.347.969 2.259.618 2.32 1.91 5.141 2.628 5.737.333.276.605 1.02.605 1.653s.334 1.485.742 1.893c.408.408.87 1.263 1.027 1.9.584 2.379 5.996 12.558 6.676 12.558.195 0 .355.35.355.777 0 .428.334 1.013.743 1.3.408.288.879.973 1.047 1.523.168.55.532 1.27.809 1.6.278.33.82 1.221 1.205 1.98.385.76.946 1.628 1.248 1.929.301.301.548.679.548.839 0 .16.72 1.04 1.6 1.956.88.916 1.6 1.838 1.6 2.05 0 .211.419.893.932 1.515.512.622 1.047 1.446 1.187 1.831.141.385.532.7.868.7.337 0 .613.293.613.651 0 1.103 9.864 11.82 16.883 18.345 5.128 4.765 8.287 7.404 8.866 7.404.358 0 .651.27.651.6 0 .33.155.6.345.6.19 0 1.024.54 1.855 1.2.831.66 1.845 1.2 2.255 1.2.41 0 .745.225.745.5 0 .482 2.482 2.7 3.021 2.7.145 0 .798.45 1.452 1 .654.55 1.417 1 1.696 1 .279 0 .818.344 1.198.764.381.42 1.174.885 1.762 1.032.589.148 1.393.614 1.787 1.036.393.423.95.768 1.238.768.287 0 .83.34 1.206.756s1.799 1.33 3.162 2.032 2.928 1.529 3.478 1.838c.55.309 1.293.565 1.651.568.358.003.878.28 1.156.614.278.335 1.305.81 2.283 1.056.978.247 1.872.694 1.988.994.115.301.901.657 1.747.792.846.136 1.844.585 2.219.998.374.414.85.752 1.058.752.207 0 .944.254 1.638.566.693.311 1.98.788 2.86 1.06.88.272 1.991.75 2.469 1.06.478.311 1.873.669 3.1.796 1.227.126 2.231.363 2.231.525 0 .49 2.058 1.139 4.5 1.42 1.265.146 2.3.407 2.3.58 0 .56 2.464 1.193 4.648 1.193 1.315 0 2.629.279 3.44.731 1.982 1.104 4.291 1.609 11.312 2.477 3.52.435 7.39.973 8.6 1.195 4.713.867 29.945.403 31.568-.581.128-.077 2.302-.344 4.832-.594 5.457-.538 9.67-1.414 11.6-2.41.808-.417 2.655-.807 4.37-.922 2.011-.135 3.113-.395 3.414-.807.275-.376 1.467-.717 3.136-.895 1.548-.166 3.072-.583 3.586-.981.492-.38 1.864-.803 3.049-.94 1.185-.137 2.445-.507 2.8-.823.355-.317 1.433-.785 2.395-1.042 2.239-.596 6.05-2.395 6.05-2.855 0-.194.516-.353 1.146-.353.63 0 1.575-.334 2.1-.742.525-.408 1.674-.971 2.554-1.25.88-.28 1.87-.732 2.2-1.005.33-.272 1.14-.624 1.8-.78.66-.157 1.47-.524 1.8-.816.33-.292 1.703-1.089 3.052-1.77 1.349-.682 2.676-1.509 2.949-1.838.273-.33.735-.599 1.025-.599.291 0 .764-.331 1.051-.735.288-.405 1.023-.859 1.633-1.011.611-.151 1.466-.63 1.9-1.064.435-.435 1.035-.79 1.335-.79.3 0 1.245-.541 2.1-1.201a958.4 958.4 0 0 1 2.336-1.8c.43-.33.904-.599 1.054-.599.149 0 .359-.335.466-.744.107-.408.705-.871 1.329-1.028.624-.156 1.377-.632 1.675-1.056.297-.425.794-.772 1.104-.772.309 0 .756-.36.991-.8.235-.44.622-.8.86-.8.486 0 5.057-3.821 5.863-4.9.287-.385.782-.7 1.1-.7.317 0 .577-.153.577-.341 0-.479 2.326-2.859 2.794-2.859.213 0 .682-.45 1.043-1 .36-.55.904-1 1.209-1 .305 0 .554-.144.554-.32 0-.177.806-1.122 1.792-2.1.986-.979 1.796-1.993 1.8-2.253.004-.26.368-.587.808-.727.44-.14.8-.44.8-.666 0-.227.496-.89 1.102-1.474 1.621-1.559 6.274-6.858 6.448-7.343.083-.229.409-.71.725-1.067 1.129-1.276 2.925-3.765 2.925-4.054 0-.162.72-1.083 1.6-2.045.88-.963 1.6-1.976 1.6-2.251 0-.275.183-.5.406-.5.224 0 .719-.675 1.1-1.5.382-.825.912-1.64 1.178-1.811.266-.171.6-.93.742-1.686.159-.85.548-1.468 1.016-1.616.417-.133.758-.478.758-.768 0-.29.72-1.606 1.6-2.924.88-1.318 1.6-2.574 1.6-2.791 0-.218.334-.825.742-1.35.408-.525.975-1.669 1.26-2.543.285-.874.761-1.832 1.058-2.128.297-.297.651-1.236.787-2.087.136-.85.487-1.638.779-1.751.293-.112.74-.978.994-1.924.255-.947.607-1.811.782-1.921.495-.31 2.337-4.667 2.627-6.215.143-.762.406-1.385.584-1.385.373 0 .999-1.885 1.382-4.158.145-.858.519-1.95.833-2.428.313-.478.688-2.01.834-3.405.163-1.558.527-2.798.944-3.215.444-.444.78-1.697.969-3.615.159-1.615.604-3.576.989-4.358.774-1.57 1.822-7.076 2.403-12.621.207-1.98.609-4.68.892-6 .716-3.336.699-27.576-.021-30.4-.281-1.1-.68-3.8-.887-6-.487-5.167-1.425-9.97-2.355-12.051-.406-.908-.865-2.939-1.02-4.513-.169-1.718-.557-3.217-.969-3.749-.378-.488-.81-1.963-.961-3.279-.151-1.316-.515-2.76-.81-3.209-.294-.449-.664-1.623-.822-2.608-.158-.985-.721-2.725-1.251-3.866-.529-1.142-.963-2.323-.963-2.626 0-.304-.72-1.968-1.6-3.699-.88-1.731-1.6-3.446-1.6-3.812 0-.365-.342-.974-.76-1.352-.419-.379-.883-1.342-1.033-2.141-.15-.799-.618-1.891-1.04-2.428-.422-.536-.767-1.276-.767-1.643 0-.368-.45-1.279-1-2.024-.55-.745-1-1.549-1-1.786 0-.237-.715-1.507-1.589-2.823-.873-1.315-1.593-2.573-1.6-2.795-.006-.222-.348-.614-.761-.872-.412-.257-.87-.949-1.017-1.536-.148-.588-.594-1.545-.992-2.128a412.912 412.912 0 0 1-2.63-3.96c-1.049-1.595-2.136-2.9-2.415-2.9-.28 0-.618-.434-.751-.965-.225-.893-.997-1.984-2.745-3.877-.385-.417-.7-.861-.7-.986 0-.267-2.864-3.789-4.6-5.656-.66-.71-2.37-2.564-3.8-4.119-3.018-3.282-3.813-4.08-8.4-8.433-3.617-3.432-4.689-4.351-8.8-7.551-1.43-1.113-3.021-2.382-3.535-2.819-.515-.438-1.353-.901-1.863-1.029-.509-.128-1.017-.578-1.127-.999-.11-.421-.487-.766-.838-.766-.35 0-.637-.15-.637-.333 0-.183-.945-.924-2.1-1.648a110.636 110.636 0 0 1-3.108-2.011c-.554-.382-1.454-.832-2-.999-.545-.167-1.298-.572-1.671-.899-1.127-.989-6.091-4.104-6.543-4.107-.233-.002-1.033-.453-1.778-1.003-.745-.55-1.656-1-2.024-1-.367 0-1.107-.345-1.643-.767-.537-.422-1.629-.89-2.428-1.04-.799-.15-1.762-.614-2.141-1.033-.378-.418-.963-.76-1.3-.76-.337 0-1.794-.61-3.238-1.356-1.444-.746-3.436-1.587-4.426-1.869-.99-.282-2.07-.736-2.4-1.008-.33-.273-1.77-.721-3.2-.997-1.43-.275-2.991-.753-3.469-1.061-.478-.308-1.918-.666-3.2-.795-1.283-.129-2.737-.548-3.234-.934-.553-.428-2.024-.81-3.8-.984-1.593-.157-3.095-.444-3.336-.639-.852-.687-7.043-1.989-12.072-2.539-2.799-.307-5.899-.747-6.889-.98-2.363-.554-21.761-.874-27.448-.452m20.466 1.201c4.19.197 8.78.625 10.2.952 1.42.327 4.292.721 6.382.875 2.09.155 4.79.608 6 1.006s3.305.841 4.655.986c1.35.144 2.933.51 3.517.813.584.303 1.729.659 2.545.792 2.803.455 9.252 2.527 13.533 4.347 1.348.573 2.643 1.042 2.879 1.042.236 0 1.275.45 2.309 1 1.035.55 2.134 1 2.442 1 .309 0 1.317.391 2.241.869.923.477 1.994 1.017 2.379 1.2.385.182 1.015.496 1.4.698.385.202 1.6.811 2.7 1.355a116.853 116.853 0 0 1 7.926 4.305c3.097 1.829 3.504 2.074 4.674 2.821.55.351 1.945 1.235 3.1 1.963s2.1 1.461 2.1 1.629c0 .169.405.433.9.587.495.155 1.457.752 2.137 1.327.68.575 1.654 1.316 2.165 1.646 1.001.647 9.452 7.485 10.723 8.676 9.001 8.436 18.348 18.657 21.675 23.704.556.844 1.373 1.962 3.4 4.655.996 1.324 1.936 2.754 3 4.565.452.77 1.172 1.94 1.6 2.6 1.839 2.839 5.623 9.559 6.756 12 .409.88 1.486 3.178 2.394 5.108.907 1.929 1.651 3.729 1.653 4 .001.27.36 1.032.797 1.692.437.66.796 1.477.797 1.815.002.339.353 1.302.78 2.14.427.838 1.252 3.081 1.834 4.984.581 1.904 1.309 4.091 1.617 4.861.309.77.821 2.57 1.138 4 .317 1.43.859 3.584 1.205 4.787.346 1.203.629 2.649.629 3.214s.362 2.057.805 3.316c.457 1.3.904 3.886 1.035 5.986.126 2.033.489 4.64.805 5.792 1.438 5.242 1.417 33.553-.028 38.305-.335 1.1-.61 2.866-.613 3.923-.006 2.62-.782 7.456-1.392 8.677-.275.55-.611 2.106-.746 3.459-.135 1.352-.61 3.384-1.056 4.514-.445 1.131-.81 2.479-.81 2.994 0 .516-.45 2.133-1 3.595-.55 1.461-1.001 2.967-1.002 3.347-.002.38-.272 1.207-.6 1.837-.329.63-.6 1.35-.602 1.6-.002.25-.446 1.354-.987 2.454-.541 1.1-.99 2.381-.996 2.846-.007.465-.373 1.304-.813 1.863-.44.56-.8 1.324-.8 1.7 0 .375-.346 1.337-.769 2.137-.685 1.296-2.107 4.342-3.237 6.934-.22.506-.935 1.82-1.587 2.92-.653 1.1-1.463 2.54-1.8 3.2-.337.66-1.053 1.92-1.591 2.8-.537.88-1.205 2.05-1.483 2.6-.278.55-.917 1.557-1.419 2.238-.503.681-.914 1.382-.914 1.559 0 .176-.624 1.082-1.386 2.012-.762.93-1.601 2.163-1.864 2.741-.263.577-.599 1.05-.747 1.05-.147 0-.88.945-1.627 2.1-.748 1.155-1.58 2.37-1.849 2.7-3.065 3.758-5.022 6.101-6.341 7.597-2.065 2.34-12.73 13.002-14.789 14.786-2.47 2.139-8.411 6.904-9.994 8.017a49.23 49.23 0 0 0-2.513 1.9c-.6.494-1.306.899-1.57.9-.264 0-.624.226-.8.501-.3.469-1.619 1.388-5.22 3.635-.825.515-2.04 1.274-2.7 1.688-1.895 1.188-3.487 2.079-5 2.8-.77.366-1.49.799-1.6.962-.287.425-5.29 2.814-5.894 2.814-.278 0-.506.166-.506.369 0 .203-.675.585-1.5.848-.825.264-2.061.818-2.747 1.232-.686.413-1.498.751-1.803.751-.306 0-1.402.45-2.435 1-1.033.55-2.142 1-2.464 1-.322 0-1.459.439-2.527.975-1.068.537-3.468 1.43-5.333 1.985-1.865.556-4.111 1.279-4.991 1.607-.88.329-2.14.607-2.8.618-.66.011-1.734.298-2.386.638-.652.34-2.485.783-4.073.984-1.588.202-3.974.733-5.302 1.18-1.328.447-3.454.816-4.726.82-1.272.004-3.573.278-5.113.61-8.573 1.845-33.542 1.937-40.3.149-.826-.218-3.346-.563-5.6-.766-2.255-.204-5.131-.737-6.39-1.185-1.26-.448-2.918-.815-3.686-.815-.768 0-2.257-.294-3.31-.654a51.298 51.298 0 0 0-4.114-1.165c-1.21-.281-3.1-.806-4.2-1.167s-3.17-1.035-4.6-1.497c-1.43-.463-3.268-1.173-4.084-1.579-.816-.406-1.806-.739-2.2-.74-.394-.001-1.436-.446-2.316-.988-.88-.542-1.852-.991-2.16-.998-.518-.011-4.258-1.654-5.64-2.478a8.308 8.308 0 0 0-1.361-.608c-1.151-.38-5.154-2.542-5.87-3.171-.348-.305-.825-.555-1.06-.555-.236 0-1.572-.724-2.969-1.608-1.397-.884-3.125-1.877-3.84-2.205-.715-.329-1.3-.756-1.3-.949 0-.193-.433-.46-.961-.593-.529-.132-1.874-.962-2.989-1.843-1.114-.881-2.155-1.602-2.312-1.602-.158 0-.696-.385-1.197-.856-.501-.47-1.265-1.055-1.698-1.3-.938-.529-6.756-4.966-7.653-5.835-.346-.335-1.877-1.689-3.402-3.009-3.471-3.004-10.198-9.633-12.989-12.8-1.164-1.32-2.801-3.168-3.639-4.106-1.761-1.971-5.955-7.389-6.596-8.519-.239-.423-.763-1.132-1.164-1.575-.401-.443-.925-1.133-1.164-1.533-.24-.4-1.471-2.287-2.736-4.193-1.265-1.907-2.3-3.566-2.3-3.687 0-.12-.332-.707-.737-1.303-2.174-3.195-2.863-4.388-2.863-4.957 0-.346-.252-.838-.56-1.093-.741-.616-6.64-12.657-6.64-13.556 0-.252-.359-1.048-.799-1.768-.439-.721-.799-1.67-.801-2.11-.002-.44-.362-1.389-.801-2.11-.44-.72-.8-1.53-.801-1.8-.002-.269-.254-.971-.561-1.559-.306-.588-.755-1.992-.997-3.12-.242-1.128-.693-2.539-1.001-3.136-.309-.597-.692-1.983-.852-3.08-.16-1.097-.542-2.489-.849-3.094-.306-.604-.76-2.584-1.008-4.4-.249-1.815-.679-3.758-.958-4.317-.278-.559-.708-2.899-.956-5.2-.247-2.301-.725-5.534-1.062-7.184-1.21-5.924-1.315-32.699-.144-36.757.229-.794.689-3.962 1.022-7.041.332-3.079.839-5.959 1.126-6.4.287-.441.653-1.971.813-3.4.16-1.429.637-3.583 1.06-4.786.423-1.204.769-2.508.769-2.899 0-.39.431-2.017.957-3.613a644.002 644.002 0 0 0 1.846-5.704c.488-1.54 1.205-3.34 1.593-4 .389-.66.823-1.857.966-2.66.143-.803.524-1.68.849-1.949.324-.269.589-.779.589-1.134 0-.355.428-1.548.952-2.651 2.636-5.557 5.177-10.612 6.234-12.406.649-1.1 1.349-2.368 1.556-2.818.792-1.723 6.178-9.997 6.704-10.302.305-.176.554-.564.554-.863 0-.299.81-1.538 1.8-2.753.99-1.216 1.8-2.315 1.8-2.443 0-.555 6.247-7.861 11.2-13.097a510.568 510.568 0 0 0 3.043-3.236c2.313-2.549 10.744-10.028 14.357-12.736 1.54-1.155 2.89-2.201 3-2.326.11-.124 1.28-.944 2.6-1.821s2.49-1.688 2.6-1.802c.631-.655 3.208-2.403 3.543-2.403.217 0 .904-.412 1.526-.916.622-.503 1.581-1.137 2.131-1.408.55-.27 1.666-.893 2.48-1.384 2.994-1.804 8.549-4.904 9.52-5.313.55-.232 1.9-.834 3-1.339 1.1-.504 2.81-1.268 3.8-1.697.99-.43 2.466-1.132 3.279-1.562.814-.43 1.806-.781 2.206-.781.4 0 1.403-.363 2.23-.806.827-.443 2.715-1.18 4.195-1.636a216.59 216.59 0 0 0 5.49-1.797c1.54-.53 3.119-.964 3.51-.963.39.001 1.715-.351 2.944-.783 1.228-.432 3.339-.906 4.69-1.053 1.351-.148 2.942-.515 3.535-.815.593-.3 2.933-.729 5.2-.953 2.267-.224 5.561-.7 7.321-1.059 2.761-.562 10.207-1.088 17.8-1.256 1.21-.027 5.628.112 9.818.308M193.2 118.451c-5.436.195-7.29.402-8.299.929-.714.373-2.334.78-3.6.905-1.329.131-2.992.626-3.936 1.171-.899.519-1.918.944-2.264.944-1.21 0-11.101 5.357-11.101 6.013 0 .183-.322.435-.715.56-1.374.436-8.755 8.203-9.375 9.867-.16.428-.565.883-.9 1.012-.336.128-.61.549-.61.935s-.45 1.364-1 2.175c-.55.81-1.004 1.691-1.009 1.956-.005.265-.368 1.274-.807 2.241-2.051 4.521-4.216 19.04-3.332 22.341l.241.9h32.585l.272-5.08c.166-3.115.495-5.529.85-6.24.318-.638.692-1.766.831-2.506.139-.74.504-1.554.811-1.809.307-.255.558-.692.558-.973 0-.676 5.534-6.192 6.213-6.192.291 0 .799-.269 1.128-.598.819-.819 2.463-1.402 3.954-1.402.683 0 1.562-.289 1.952-.643 1.107-1.001 6.858-1.228 9.153-.36.99.374 2.61.817 3.6.984 2.118.359 3.2.776 3.2 1.235 0 .181.405.455.9.607.495.152 1.211.569 1.591.927 2.345 2.206 3.505 3.512 3.507 3.95.001.275.175.5.386.5.211 0 .594.765.85 1.7.257.935.759 2.33 1.116 3.1.942 2.03.95 14.174.01 15.618-.351.54-.773 1.702-.935 2.582-.163.88-.498 1.844-.745 2.143a11.69 11.69 0 0 0-.864 1.242c-2.597 4.375-6.112 8.162-19.616 21.138-2.175 2.09-7 8.061-7 8.663 0 .136-.36.779-.8 1.43-.44.651-1.137 1.686-1.55 2.3-.412.613-.885 1.731-1.05 2.484-.165.753-.62 1.826-1.01 2.384-.391.559-.817 2.024-.947 3.255-.129 1.232-.511 3.021-.848 3.977-.673 1.906-1.318 14.242-.844 16.131l.272 1.082 13.955-.114c7.676-.063 14.056-.215 14.179-.338.122-.122.336-2.552.475-5.4.182-3.737.456-5.622.984-6.777.403-.88.853-2.269 1-3.086.147-.817.507-1.684.8-1.927.293-.243.639-.925.768-1.515.13-.589 1.042-2.148 2.026-3.464.985-1.316 1.79-2.519 1.79-2.673 0-.155.36-.395.8-.535.44-.14.803-.467.806-.727.003-.26 1.727-2.093 3.832-4.073 5.023-4.725 15.362-14.979 15.362-15.234 0-.111.914-1.318 2.032-2.684 2.797-3.417 2.811-3.436 4.271-5.651.713-1.082 1.297-2.188 1.297-2.457 0-.269.27-.592.6-.719.33-.126.601-.551.601-.942.001-.392.357-1.295.791-2.007.79-1.295 1.388-3.327 2.861-9.706.924-4.001.825-13.65-.183-17.8-.32-1.32-.867-3.66-1.214-5.2-.348-1.54-.997-3.513-1.444-4.385-.447-.871-.812-1.912-.812-2.312 0-.401-.244-.822-.543-.936-.298-.115-.777-.919-1.064-1.788-.287-.868-.651-1.579-.809-1.579-.158 0-1.036-.991-1.951-2.203-1.586-2.101-5.366-5.982-7.318-7.515-1.196-.939-1.812-1.277-6.972-3.83-7.547-3.733-8.322-4.052-9.845-4.052-.819 0-2.436-.378-3.594-.84-2.567-1.025-13.162-1.508-24.304-1.109m-.598 143.025c-.439.121-1.229.559-1.754.972-.526.414-1.219.752-1.54.752-.821 0-5.037 3.555-5.93 5-2.159 3.493-2.575 4.404-2.959 6.481-.806 4.358-.037 13.246 1.181 13.652.22.074.4.35.4.614 0 1.071 5.195 6.653 6.192 6.653.275 0 .948.352 1.496.783 2.478 1.95 14.539 1.955 17.014.008.553-.435 1.207-.792 1.452-.794.245-.001 1.436-.981 2.646-2.178 3.136-3.102 3.464-3.501 3.791-4.619.161-.55.588-1.45.95-2 1.754-2.669.755-13.542-1.581-17.2l-1.036-1.625c-.707-1.11-5.402-4.775-6.118-4.775-.241 0-.986-.405-1.655-.9-1.217-.9-10.15-1.487-12.549-.824" stroke="#e3f3fc" fill="#e3f3fc"/>
</svg>
